<svg width="37" height="57" viewBox="0 0 37 57" fill="none" xmlns="http://www.w3.org/2000/svg">
<path d="M24.1511 21.2224H36.2078C36.2078 21.4487 36.2078 21.6582 36.2078 21.8688C36.2078 25.39 36.2078 28.9112 36.2078 32.4323C36.2078 42.6441 30.4302 51.3636 21.0589 55.2613C18.4859 56.3312 15.7916 56.87 13.014 56.9955C12.7772 57.0056 12.5404 57.0011 12.3035 56.9966C12.249 56.9966 12.1946 56.9698 12.0856 56.9417V45.0528C10.8258 44.8041 9.58929 44.7022 8.45179 44.3112C3.74276 42.6912 0.986283 39.3403 0.130096 34.4108C0.0189028 33.7689 0.0100074 33.1034 0.00778352 32.4492C-0.00333579 28.928 0.00222386 25.4068 0.00222386 21.8856V21.2481H12.0711V44.915C13.0407 44.784 13.9603 44.7403 14.8409 44.5285C19.8435 43.3264 23.4284 39.254 24.0589 34.1084C24.1145 33.6569 24.1456 33.1987 24.1467 32.7427C24.1534 29.1419 24.1511 25.5412 24.1511 21.9405V21.2224Z" fill="#FFED00"/>
<path d="M20.1382 16.2055H0L16.0841 0L23.6619 7.63391C26.8009 10.7966 24.5781 16.2044 20.1382 16.2044V16.2055Z" fill="white"/>
</svg>
